<mxfile host="app.diagrams.net" modified="2023-12-22T00:57:23.595Z" agent="Mozilla/5.0 (Windows NT 10.0; Win64; x64) AppleWebKit/537.36 (KHTML, like Gecko) Chrome/120.0.0.0 Safari/537.36" etag="VCzmTzjimFtRBeiRtV97" version="22.1.11" type="github">
  <diagram id="kgpKYQtTHZ0yAKxKKP6v" name="Page-1">
    <mxGraphModel dx="922" dy="561" grid="1" gridSize="10" guides="1" tooltips="1" connect="1" arrows="1" fold="1" page="1" pageScale="1" pageWidth="850" pageHeight="1100" math="0" shadow="0">
      <root>
        <mxCell id="0" />
        <mxCell id="1" parent="0" />
        <mxCell id="8DW_XPvYsRutZAFZVGb4-25" value="User" style="strokeWidth=2;html=1;shape=mxgraph.flowchart.start_1;whiteSpace=wrap;" vertex="1" parent="1">
          <mxGeometry x="375" y="520" width="100" height="60" as="geometry" />
        </mxCell>
        <mxCell id="8DW_XPvYsRutZAFZVGb4-26" value="User interface" style="strokeWidth=2;html=1;shape=mxgraph.flowchart.start_1;whiteSpace=wrap;" vertex="1" parent="1">
          <mxGeometry x="210" y="340" width="100" height="60" as="geometry" />
        </mxCell>
        <mxCell id="8DW_XPvYsRutZAFZVGb4-27" value="Authentication" style="strokeWidth=2;html=1;shape=mxgraph.flowchart.start_1;whiteSpace=wrap;" vertex="1" parent="1">
          <mxGeometry x="510" y="340" width="100" height="60" as="geometry" />
        </mxCell>
        <mxCell id="8DW_XPvYsRutZAFZVGb4-28" value="Subscription" style="strokeWidth=2;html=1;shape=mxgraph.flowchart.start_1;whiteSpace=wrap;" vertex="1" parent="1">
          <mxGeometry x="110" y="520" width="100" height="60" as="geometry" />
        </mxCell>
        <mxCell id="8DW_XPvYsRutZAFZVGb4-29" value="Messaging" style="strokeWidth=2;html=1;shape=mxgraph.flowchart.start_1;whiteSpace=wrap;" vertex="1" parent="1">
          <mxGeometry x="210" y="700" width="100" height="60" as="geometry" />
        </mxCell>
        <mxCell id="8DW_XPvYsRutZAFZVGb4-30" value="Notification" style="strokeWidth=2;html=1;shape=mxgraph.flowchart.start_1;whiteSpace=wrap;" vertex="1" parent="1">
          <mxGeometry x="610" y="520" width="100" height="60" as="geometry" />
        </mxCell>
        <mxCell id="8DW_XPvYsRutZAFZVGb4-31" value="Database" style="strokeWidth=2;html=1;shape=mxgraph.flowchart.start_1;whiteSpace=wrap;" vertex="1" parent="1">
          <mxGeometry x="562.5" y="667.5" width="100" height="60" as="geometry" />
        </mxCell>
        <mxCell id="8DW_XPvYsRutZAFZVGb4-32" style="rounded=0;orthogonalLoop=1;jettySize=auto;html=1;exitX=0.145;exitY=0.145;exitDx=0;exitDy=0;exitPerimeter=0;entryX=0.5;entryY=1;entryDx=0;entryDy=0;entryPerimeter=0;" edge="1" parent="1" source="8DW_XPvYsRutZAFZVGb4-25" target="8DW_XPvYsRutZAFZVGb4-26">
          <mxGeometry relative="1" as="geometry" />
        </mxCell>
        <mxCell id="8DW_XPvYsRutZAFZVGb4-33" value="&lt;font style=&quot;font-size: 8px;&quot;&gt;Enter details for register/login&lt;br&gt;create post&lt;br&gt;subscribe&lt;/font&gt;" style="edgeLabel;html=1;align=center;verticalAlign=middle;resizable=0;points=[];" vertex="1" connectable="0" parent="8DW_XPvYsRutZAFZVGb4-32">
          <mxGeometry x="0.02" y="1" relative="1" as="geometry">
            <mxPoint x="-3" y="16" as="offset" />
          </mxGeometry>
        </mxCell>
        <mxCell id="8DW_XPvYsRutZAFZVGb4-34" style="rounded=0;orthogonalLoop=1;jettySize=auto;html=1;exitX=1;exitY=0.5;exitDx=0;exitDy=0;exitPerimeter=0;entryX=0.5;entryY=0;entryDx=0;entryDy=0;entryPerimeter=0;" edge="1" parent="1" source="8DW_XPvYsRutZAFZVGb4-26" target="8DW_XPvYsRutZAFZVGb4-25">
          <mxGeometry relative="1" as="geometry">
            <mxPoint x="412" y="520" as="targetPoint" />
          </mxGeometry>
        </mxCell>
        <mxCell id="8DW_XPvYsRutZAFZVGb4-35" value="Display dashboard" style="edgeLabel;html=1;align=center;verticalAlign=middle;resizable=0;points=[];" vertex="1" connectable="0" parent="8DW_XPvYsRutZAFZVGb4-34">
          <mxGeometry x="-0.1679" y="1" relative="1" as="geometry">
            <mxPoint as="offset" />
          </mxGeometry>
        </mxCell>
        <mxCell id="8DW_XPvYsRutZAFZVGb4-36" style="rounded=0;orthogonalLoop=1;jettySize=auto;html=1;exitX=0.855;exitY=0.145;exitDx=0;exitDy=0;exitPerimeter=0;entryX=0.5;entryY=1;entryDx=0;entryDy=0;entryPerimeter=0;" edge="1" parent="1" source="8DW_XPvYsRutZAFZVGb4-25" target="8DW_XPvYsRutZAFZVGb4-27">
          <mxGeometry relative="1" as="geometry" />
        </mxCell>
        <mxCell id="8DW_XPvYsRutZAFZVGb4-37" value="submit credentials" style="edgeLabel;html=1;align=center;verticalAlign=middle;resizable=0;points=[];" vertex="1" connectable="0" parent="8DW_XPvYsRutZAFZVGb4-36">
          <mxGeometry x="-0.1514" relative="1" as="geometry">
            <mxPoint x="7" y="-4" as="offset" />
          </mxGeometry>
        </mxCell>
        <mxCell id="8DW_XPvYsRutZAFZVGb4-38" style="rounded=0;orthogonalLoop=1;jettySize=auto;html=1;exitX=0;exitY=0.5;exitDx=0;exitDy=0;exitPerimeter=0;entryX=0.5;entryY=0;entryDx=0;entryDy=0;entryPerimeter=0;" edge="1" parent="1" source="8DW_XPvYsRutZAFZVGb4-27" target="8DW_XPvYsRutZAFZVGb4-25">
          <mxGeometry relative="1" as="geometry" />
        </mxCell>
        <mxCell id="8DW_XPvYsRutZAFZVGb4-39" value="Authenticate/Deny credentials" style="edgeLabel;html=1;align=center;verticalAlign=middle;resizable=0;points=[];" vertex="1" connectable="0" parent="8DW_XPvYsRutZAFZVGb4-38">
          <mxGeometry x="-0.5221" y="-1" relative="1" as="geometry">
            <mxPoint x="-29" y="4" as="offset" />
          </mxGeometry>
        </mxCell>
        <mxCell id="8DW_XPvYsRutZAFZVGb4-45" style="edgeStyle=orthogonalEdgeStyle;rounded=0;orthogonalLoop=1;jettySize=auto;html=1;exitX=0;exitY=0.5;exitDx=0;exitDy=0;exitPerimeter=0;entryX=1;entryY=0.5;entryDx=0;entryDy=0;entryPerimeter=0;" edge="1" parent="1" source="8DW_XPvYsRutZAFZVGb4-30" target="8DW_XPvYsRutZAFZVGb4-25">
          <mxGeometry relative="1" as="geometry" />
        </mxCell>
        <mxCell id="8DW_XPvYsRutZAFZVGb4-46" value="Alert new messages&lt;br&gt;Subscription request" style="edgeLabel;html=1;align=center;verticalAlign=middle;resizable=0;points=[];" vertex="1" connectable="0" parent="8DW_XPvYsRutZAFZVGb4-45">
          <mxGeometry x="0.1995" y="1" relative="1" as="geometry">
            <mxPoint x="21" y="-1" as="offset" />
          </mxGeometry>
        </mxCell>
        <mxCell id="8DW_XPvYsRutZAFZVGb4-49" style="edgeStyle=orthogonalEdgeStyle;rounded=0;orthogonalLoop=1;jettySize=auto;html=1;exitX=0.145;exitY=0.145;exitDx=0;exitDy=0;exitPerimeter=0;entryX=0.855;entryY=0.145;entryDx=0;entryDy=0;entryPerimeter=0;" edge="1" parent="1" source="8DW_XPvYsRutZAFZVGb4-25" target="8DW_XPvYsRutZAFZVGb4-28">
          <mxGeometry relative="1" as="geometry" />
        </mxCell>
        <mxCell id="8DW_XPvYsRutZAFZVGb4-50" value="request subscribe to producer" style="edgeLabel;html=1;align=center;verticalAlign=middle;resizable=0;points=[];" vertex="1" connectable="0" parent="8DW_XPvYsRutZAFZVGb4-49">
          <mxGeometry x="0.0215" y="3" relative="1" as="geometry">
            <mxPoint as="offset" />
          </mxGeometry>
        </mxCell>
        <mxCell id="8DW_XPvYsRutZAFZVGb4-51" style="edgeStyle=orthogonalEdgeStyle;rounded=0;orthogonalLoop=1;jettySize=auto;html=1;exitX=0.855;exitY=0.855;exitDx=0;exitDy=0;exitPerimeter=0;entryX=0.145;entryY=0.855;entryDx=0;entryDy=0;entryPerimeter=0;" edge="1" parent="1" source="8DW_XPvYsRutZAFZVGb4-28" target="8DW_XPvYsRutZAFZVGb4-25">
          <mxGeometry relative="1" as="geometry" />
        </mxCell>
        <mxCell id="8DW_XPvYsRutZAFZVGb4-52" value="Confirm subscription&amp;nbsp;" style="edgeLabel;html=1;align=center;verticalAlign=middle;resizable=0;points=[];" vertex="1" connectable="0" parent="8DW_XPvYsRutZAFZVGb4-51">
          <mxGeometry x="-0.0997" y="-4" relative="1" as="geometry">
            <mxPoint y="5" as="offset" />
          </mxGeometry>
        </mxCell>
        <mxCell id="8DW_XPvYsRutZAFZVGb4-53" style="rounded=0;orthogonalLoop=1;jettySize=auto;html=1;exitX=0.145;exitY=0.855;exitDx=0;exitDy=0;exitPerimeter=0;entryX=0.5;entryY=0;entryDx=0;entryDy=0;entryPerimeter=0;" edge="1" parent="1" source="8DW_XPvYsRutZAFZVGb4-25" target="8DW_XPvYsRutZAFZVGb4-29">
          <mxGeometry relative="1" as="geometry" />
        </mxCell>
        <mxCell id="8DW_XPvYsRutZAFZVGb4-54" value="Compose message" style="edgeLabel;html=1;align=center;verticalAlign=middle;resizable=0;points=[];" vertex="1" connectable="0" parent="8DW_XPvYsRutZAFZVGb4-53">
          <mxGeometry x="-0.0607" y="1" relative="1" as="geometry">
            <mxPoint x="-1" as="offset" />
          </mxGeometry>
        </mxCell>
        <mxCell id="8DW_XPvYsRutZAFZVGb4-55" style="rounded=0;orthogonalLoop=1;jettySize=auto;html=1;exitX=1;exitY=0.5;exitDx=0;exitDy=0;exitPerimeter=0;entryX=0.5;entryY=1;entryDx=0;entryDy=0;entryPerimeter=0;" edge="1" parent="1" source="8DW_XPvYsRutZAFZVGb4-29" target="8DW_XPvYsRutZAFZVGb4-25">
          <mxGeometry relative="1" as="geometry" />
        </mxCell>
        <mxCell id="8DW_XPvYsRutZAFZVGb4-56" value="Text" style="edgeLabel;html=1;align=center;verticalAlign=middle;resizable=0;points=[];" vertex="1" connectable="0" parent="8DW_XPvYsRutZAFZVGb4-55">
          <mxGeometry x="-0.0401" relative="1" as="geometry">
            <mxPoint y="1" as="offset" />
          </mxGeometry>
        </mxCell>
        <mxCell id="8DW_XPvYsRutZAFZVGb4-57" value="Deliver to subscribers" style="edgeLabel;html=1;align=center;verticalAlign=middle;resizable=0;points=[];" vertex="1" connectable="0" parent="8DW_XPvYsRutZAFZVGb4-55">
          <mxGeometry x="-0.0473" y="-2" relative="1" as="geometry">
            <mxPoint as="offset" />
          </mxGeometry>
        </mxCell>
        <mxCell id="8DW_XPvYsRutZAFZVGb4-68" value="&lt;br&gt;&lt;br&gt;&lt;br&gt;&lt;br&gt;&lt;br&gt;&lt;br&gt;Store/Retrieve data for services" style="whiteSpace=wrap;html=1;aspect=fixed;fillColor=none;" vertex="1" parent="1">
          <mxGeometry x="550" y="635" width="125" height="125" as="geometry" />
        </mxCell>
      </root>
    </mxGraphModel>
  </diagram>
</mxfile>
